<?xml version="1.0" encoding="UTF-8" standalone="no"?>
<!DOCTYPE svg PUBLIC "-//W3C//DTD SVG 1.1//EN" "http://www.w3.org/Graphics/SVG/1.1/DTD/svg11.dtd">
<svg width="100%" height="100%" viewBox="0 0 2000 2000" version="1.1" xmlns="http://www.w3.org/2000/svg" xmlns:xlink="http://www.w3.org/1999/xlink" xml:space="preserve" xmlns:serif="http://www.serif.com/" style="fill-rule:evenodd;clip-rule:evenodd;stroke-linejoin:round;stroke-miterlimit:2;">
    <g id="M" transform="matrix(29.9875,0,0,36.4078,-9431.77,-17681.7)">
        <path d="M350.901,491.151C350.901,491.151 350.9,491.151 350.899,491.151C350.899,491.151 350.899,491.151 350.899,491.151L347.844,491.151C347.776,491.151 347.721,491.206 347.721,491.275C347.721,491.343 347.776,491.398 347.844,491.398C348.896,491.398 349.993,491.95 350.778,492.779L350.778,520.258C350.778,521.876 349.462,523.192 347.844,523.192C347.776,523.192 347.721,523.248 347.721,523.316C347.721,523.384 347.776,523.439 347.844,523.439L350.899,523.439C350.9,523.439 350.901,523.439 350.902,523.439C350.903,523.439 350.905,523.439 350.906,523.439C350.907,523.439 350.907,523.439 350.908,523.439L353.966,523.439C354.034,523.439 354.089,523.384 354.089,523.316C354.089,523.248 354.034,523.192 353.966,523.192C352.348,523.192 351.031,521.876 351.031,520.258C351.031,520.245 351.029,520.233 351.025,520.222L351.025,493.061C351.339,493.452 351.584,493.89 351.731,494.354L360.76,523.353C360.761,523.355 360.762,523.357 360.763,523.359C360.766,523.367 360.77,523.375 360.774,523.382C360.776,523.385 360.778,523.388 360.78,523.391C360.786,523.399 360.794,523.406 360.802,523.413C360.804,523.415 360.807,523.416 360.81,523.418C360.817,523.423 360.826,523.427 360.834,523.431C360.836,523.432 360.838,523.433 360.84,523.433C360.841,523.433 360.841,523.434 360.841,523.434C360.853,523.437 360.864,523.439 360.875,523.439C360.876,523.439 360.877,523.439 360.878,523.439L360.878,523.439C360.931,523.439 360.979,523.405 360.996,523.353L362.946,517.096L370.74,492.085L370.74,520.258C370.74,521.876 369.424,523.192 367.806,523.192C367.738,523.192 367.682,523.247 367.682,523.316C367.682,523.384 367.738,523.439 367.806,523.439L370.86,523.439C370.861,523.439 370.862,523.439 370.863,523.439L374.583,523.439C374.584,523.439 374.585,523.439 374.586,523.439L377.64,523.439C377.709,523.439 377.764,523.384 377.764,523.316C377.764,523.247 377.709,523.192 377.64,523.192C376.022,523.192 374.706,521.876 374.706,520.258L374.706,493.97C374.743,493.029 375.542,491.414 377.83,491.409C377.859,491.409 377.883,491.389 377.883,491.365C377.883,491.326 377.883,491.274 377.883,491.274C377.883,491.206 377.828,491.151 377.76,491.151L370.863,491.151C370.862,491.151 370.86,491.151 370.858,491.151C370.853,491.152 370.849,491.152 370.845,491.153C370.841,491.153 370.837,491.154 370.833,491.155C370.829,491.156 370.826,491.157 370.822,491.159C370.818,491.16 370.814,491.161 370.811,491.163C370.807,491.165 370.804,491.167 370.8,491.169C370.797,491.171 370.794,491.173 370.79,491.175C370.787,491.177 370.784,491.18 370.781,491.183C370.778,491.185 370.776,491.188 370.773,491.191C370.77,491.194 370.768,491.197 370.765,491.2C370.763,491.203 370.76,491.207 370.758,491.21C370.756,491.213 370.755,491.217 370.753,491.22C370.751,491.224 370.749,491.228 370.748,491.233C370.747,491.234 370.746,491.236 370.746,491.238L362.828,516.645L355.853,494.24L355.845,494.214C355.414,492.935 354.304,491.862 353.054,491.398L355.311,491.398C355.379,491.398 355.434,491.342 355.434,491.274C355.434,491.206 355.379,491.151 355.311,491.151L350.901,491.151Z" style="fill-rule:nonzero;"/>
    </g>
    <g id="V" transform="matrix(34.3607,0,0,36.4078,-11847.9,-17681.7)">
        <path d="M373.921,491.151L367.805,491.151C367.737,491.151 367.682,491.206 367.682,491.275C367.682,491.343 367.737,491.398 367.805,491.398C368.555,491.398 369.176,491.681 369.554,492.194C369.958,492.744 370.043,493.49 369.793,494.294L362.828,516.644L355.871,494.296C355.871,494.296 355.871,494.296 355.871,494.296C355.62,493.491 355.705,492.744 356.11,492.194C356.487,491.681 357.108,491.398 357.858,491.398C357.926,491.398 357.982,491.343 357.982,491.275C357.982,491.206 357.926,491.151 357.858,491.151L354.803,491.151C354.802,491.151 354.801,491.151 354.8,491.151L350.902,491.151C350.901,491.151 350.9,491.151 350.899,491.151L347.844,491.151C347.776,491.151 347.721,491.206 347.721,491.275C347.721,491.343 347.776,491.398 347.844,491.398C349.48,491.398 351.226,492.731 351.736,494.369L360.76,523.353C360.76,523.353 360.761,523.354 360.761,523.354C360.765,523.365 360.77,523.375 360.776,523.384C360.777,523.386 360.778,523.388 360.779,523.39C360.786,523.399 360.794,523.406 360.803,523.413C360.805,523.415 360.807,523.416 360.809,523.417C360.817,523.423 360.826,523.428 360.836,523.432C360.838,523.432 360.839,523.433 360.84,523.433C360.84,523.433 360.841,523.434 360.841,523.434C360.853,523.438 360.866,523.439 360.878,523.439C360.891,523.439 360.904,523.437 360.917,523.433C360.922,523.431 360.926,523.428 360.931,523.426C360.938,523.423 360.945,523.42 360.951,523.416C360.956,523.412 360.959,523.407 360.964,523.403C360.969,523.398 360.974,523.394 360.978,523.388C360.986,523.378 360.992,523.366 360.996,523.353L362.946,517.096L370.028,494.369C370.028,494.369 370.028,494.369 370.028,494.369C370.539,492.731 372.285,491.398 373.921,491.398C373.989,491.398 374.044,491.343 374.044,491.275C374.044,491.206 373.989,491.151 373.921,491.151L373.921,491.151Z" style="fill-rule:nonzero;"/>
    </g>
    <g id="Vadim-Maltsev" serif:id="Vadim Maltsev" transform="matrix(4.85306,0,0,4.8771,-2649.01,-4463.82)">
        <path d="M571.35,1249.03L582.2,1278.98L593.15,1249.03L598,1249.03L584.85,1283.88L579.6,1283.88L566.45,1249.03L571.35,1249.03Z" style="fill-rule:nonzero;"/>
        <path d="M601.3,1270.08C601.3,1267.28 601.866,1264.82 603,1262.71C604.133,1260.59 605.691,1258.95 607.675,1257.78C609.658,1256.62 611.866,1256.03 614.3,1256.03C616.7,1256.03 618.783,1256.55 620.55,1257.58C622.316,1258.62 623.633,1259.92 624.5,1261.48L624.5,1256.48L629.1,1256.48L629.1,1283.88L624.5,1283.88L624.5,1278.78C623.6,1280.38 622.258,1281.71 620.475,1282.76C618.691,1283.81 616.616,1284.33 614.25,1284.33C611.816,1284.33 609.616,1283.73 607.65,1282.53C605.683,1281.33 604.133,1279.65 603,1277.48C601.866,1275.32 601.3,1272.85 601.3,1270.08ZM624.5,1270.13C624.5,1268.07 624.083,1266.27 623.25,1264.73C622.416,1263.2 621.291,1262.02 619.875,1261.21C618.458,1260.39 616.9,1259.98 615.2,1259.98C613.5,1259.98 611.95,1260.38 610.55,1261.18C609.15,1261.98 608.033,1263.15 607.2,1264.68C606.366,1266.22 605.95,1268.02 605.95,1270.08C605.95,1272.18 606.366,1274.01 607.2,1275.56C608.033,1277.11 609.15,1278.29 610.55,1279.11C611.95,1279.92 613.5,1280.33 615.2,1280.33C616.9,1280.33 618.458,1279.92 619.875,1279.11C621.291,1278.29 622.416,1277.11 623.25,1275.56C624.083,1274.01 624.5,1272.2 624.5,1270.13Z" style="fill-rule:nonzero;"/>
        <path d="M635.1,1270.08C635.1,1267.28 635.666,1264.82 636.8,1262.71C637.933,1260.59 639.491,1258.95 641.475,1257.78C643.458,1256.62 645.683,1256.03 648.15,1256.03C650.283,1256.03 652.266,1256.52 654.1,1257.51C655.933,1258.49 657.333,1259.78 658.3,1261.38L658.3,1246.88L662.9,1246.88L662.9,1283.88L658.3,1283.88L658.3,1278.73C657.4,1280.37 656.066,1281.71 654.3,1282.76C652.533,1283.81 650.466,1284.33 648.1,1284.33C645.666,1284.33 643.458,1283.73 641.475,1282.53C639.491,1281.33 637.933,1279.65 636.8,1277.48C635.666,1275.32 635.1,1272.85 635.1,1270.08ZM658.3,1270.13C658.3,1268.07 657.883,1266.27 657.05,1264.73C656.216,1263.2 655.091,1262.02 653.675,1261.21C652.258,1260.39 650.7,1259.98 649,1259.98C647.3,1259.98 645.75,1260.38 644.35,1261.18C642.95,1261.98 641.833,1263.15 641,1264.68C640.166,1266.22 639.75,1268.02 639.75,1270.08C639.75,1272.18 640.166,1274.01 641,1275.56C641.833,1277.11 642.95,1278.29 644.35,1279.11C645.75,1279.92 647.3,1280.33 649,1280.33C650.7,1280.33 652.258,1279.92 653.675,1279.11C655.091,1278.29 656.216,1277.11 657.05,1275.56C657.883,1274.01 658.3,1272.2 658.3,1270.13Z" style="fill-rule:nonzero;"/>
        <path d="M672.95,1252.03C672.083,1252.03 671.35,1251.73 670.75,1251.13C670.15,1250.53 669.85,1249.8 669.85,1248.93C669.85,1248.07 670.15,1247.33 670.75,1246.73C671.35,1246.13 672.083,1245.83 672.95,1245.83C673.783,1245.83 674.491,1246.13 675.075,1246.73C675.658,1247.33 675.95,1248.07 675.95,1248.93C675.95,1249.8 675.658,1250.53 675.075,1251.13C674.491,1251.73 673.783,1252.03 672.95,1252.03ZM675.15,1256.48L675.15,1283.88L670.6,1283.88L670.6,1256.48L675.15,1256.48Z" style="fill-rule:nonzero;"/>
        <path d="M715.85,1255.98C717.983,1255.98 719.883,1256.42 721.55,1257.31C723.216,1258.19 724.533,1259.52 725.5,1261.28C726.466,1263.05 726.95,1265.2 726.95,1267.73L726.95,1283.88L722.45,1283.88L722.45,1268.38C722.45,1265.65 721.775,1263.56 720.425,1262.11C719.075,1260.66 717.25,1259.93 714.95,1259.93C712.583,1259.93 710.7,1260.69 709.3,1262.21C707.9,1263.72 707.2,1265.92 707.2,1268.78L707.2,1283.88L702.7,1283.88L702.7,1268.38C702.7,1265.65 702.025,1263.56 700.675,1262.11C699.325,1260.66 697.5,1259.93 695.2,1259.93C692.833,1259.93 690.95,1260.69 689.55,1262.21C688.15,1263.72 687.45,1265.92 687.45,1268.78L687.45,1283.88L682.9,1283.88L682.9,1256.48L687.45,1256.48L687.45,1260.43C688.35,1259 689.558,1257.9 691.075,1257.13C692.591,1256.37 694.266,1255.98 696.1,1255.98C698.4,1255.98 700.433,1256.5 702.2,1257.53C703.966,1258.57 705.283,1260.08 706.15,1262.08C706.916,1260.15 708.183,1258.65 709.95,1257.58C711.716,1256.52 713.683,1255.98 715.85,1255.98Z" style="fill-rule:nonzero;"/>
        <path d="M784.65,1249.28L784.65,1283.88L780.1,1283.88L780.1,1258.08L768.6,1283.88L765.4,1283.88L753.85,1258.13L753.85,1283.88L749.3,1283.88L749.3,1249.28L754.2,1249.28L767,1277.88L779.8,1249.28L784.65,1249.28Z" style="fill-rule:nonzero;"/>
        <path d="M790.65,1270.08C790.65,1267.28 791.216,1264.82 792.35,1262.71C793.483,1260.59 795.041,1258.95 797.025,1257.78C799.008,1256.62 801.216,1256.03 803.65,1256.03C806.05,1256.03 808.133,1256.55 809.9,1257.58C811.666,1258.62 812.983,1259.92 813.85,1261.48L813.85,1256.48L818.45,1256.48L818.45,1283.88L813.85,1283.88L813.85,1278.78C812.95,1280.38 811.608,1281.71 809.825,1282.76C808.041,1283.81 805.966,1284.33 803.6,1284.33C801.166,1284.33 798.966,1283.73 797,1282.53C795.033,1281.33 793.483,1279.65 792.35,1277.48C791.216,1275.32 790.65,1272.85 790.65,1270.08ZM813.85,1270.13C813.85,1268.07 813.433,1266.27 812.6,1264.73C811.766,1263.2 810.641,1262.02 809.225,1261.21C807.808,1260.39 806.25,1259.98 804.55,1259.98C802.85,1259.98 801.3,1260.38 799.9,1261.18C798.5,1261.98 797.383,1263.15 796.55,1264.68C795.716,1266.22 795.3,1268.02 795.3,1270.08C795.3,1272.18 795.716,1274.01 796.55,1275.56C797.383,1277.11 798.5,1278.29 799.9,1279.11C801.3,1279.92 802.85,1280.33 804.55,1280.33C806.25,1280.33 807.808,1279.92 809.225,1279.11C810.641,1278.29 811.766,1277.11 812.6,1275.56C813.433,1274.01 813.85,1272.2 813.85,1270.13Z" style="fill-rule:nonzero;"/>
        <rect x="826.15" y="1246.88" width="4.55" height="37" style="fill-rule:nonzero;"/>
        <path d="M844,1260.23L844,1276.38C844,1277.72 844.283,1278.66 844.85,1279.21C845.416,1279.76 846.4,1280.03 847.8,1280.03L851.15,1280.03L851.15,1283.88L847.05,1283.88C844.516,1283.88 842.616,1283.3 841.35,1282.13C840.083,1280.97 839.45,1279.05 839.45,1276.38L839.45,1260.23L835.9,1260.23L835.9,1256.48L839.45,1256.48L839.45,1249.58L844,1249.58L844,1256.48L851.15,1256.48L851.15,1260.23L844,1260.23Z" style="fill-rule:nonzero;"/>
        <path d="M866.3,1284.33C864.2,1284.33 862.325,1283.97 860.675,1283.26C859.025,1282.54 857.716,1281.54 856.75,1280.26C855.783,1278.97 855.25,1277.5 855.15,1275.83L859.85,1275.83C859.983,1277.27 860.625,1278.43 861.775,1279.33C862.925,1280.23 864.433,1280.68 866.3,1280.68C868.066,1280.68 869.441,1280.29 870.425,1279.51C871.408,1278.72 871.9,1277.7 871.9,1276.43C871.9,1275.23 871.366,1274.34 870.3,1273.76C869.233,1273.17 867.583,1272.6 865.35,1272.03C863.316,1271.5 861.666,1270.97 860.4,1270.43C859.133,1269.9 858.05,1269.11 857.15,1268.06C856.25,1267.01 855.8,1265.62 855.8,1263.88C855.8,1262.45 856.2,1261.13 857,1259.93C857.8,1258.73 858.958,1257.78 860.475,1257.08C861.991,1256.38 863.75,1256.03 865.75,1256.03C868.783,1256.03 871.233,1256.8 873.1,1258.33C874.966,1259.87 875.966,1261.97 876.1,1264.63L871.55,1264.63C871.45,1263.13 870.875,1261.93 869.825,1261.03C868.775,1260.13 867.366,1259.68 865.6,1259.68C863.933,1259.68 862.625,1260.05 861.675,1260.78C860.725,1261.52 860.25,1262.48 860.25,1263.68C860.25,1264.62 860.55,1265.37 861.15,1265.96C861.75,1266.54 862.483,1266.99 863.35,1267.31C864.216,1267.62 865.45,1268.02 867.05,1268.48C869.05,1269.02 870.65,1269.54 871.85,1270.06C873.05,1270.57 874.083,1271.33 874.95,1272.33C875.816,1273.33 876.25,1274.67 876.25,1276.33C876.25,1277.87 875.841,1279.23 875.025,1280.43C874.208,1281.63 873.05,1282.58 871.55,1283.28C870.05,1283.98 868.3,1284.33 866.3,1284.33Z" style="fill-rule:nonzero;"/>
        <path d="M907.75,1269.03C907.75,1269.87 907.7,1270.77 907.6,1271.73L885.7,1271.73C885.833,1274.43 886.741,1276.57 888.425,1278.13C890.108,1279.7 892.166,1280.48 894.6,1280.48C896.566,1280.48 898.208,1280.02 899.525,1279.11C900.841,1278.19 901.766,1276.97 902.3,1275.43L907.2,1275.43C906.466,1278.07 905,1280.21 902.8,1281.86C900.6,1283.51 897.866,1284.33 894.6,1284.33C892,1284.33 889.675,1283.75 887.625,1282.58C885.575,1281.42 883.966,1279.76 882.8,1277.61C881.633,1275.46 881.05,1272.97 881.05,1270.13C881.05,1267.3 881.616,1264.82 882.75,1262.68C883.883,1260.55 885.475,1258.91 887.525,1257.76C889.575,1256.61 891.933,1256.03 894.6,1256.03C897.2,1256.03 899.491,1256.6 901.475,1257.73C903.458,1258.87 905,1260.42 906.1,1262.38C907.2,1264.35 907.75,1266.57 907.75,1269.03ZM903.05,1268.43C903.05,1266.63 902.666,1265.09 901.9,1263.81C901.133,1262.52 900.091,1261.55 898.775,1260.88C897.458,1260.22 896,1259.88 894.4,1259.88C892.066,1259.88 890.083,1260.64 888.45,1262.16C886.816,1263.67 885.916,1265.77 885.75,1268.43L903.05,1268.43Z" style="fill-rule:nonzero;"/>
        <path d="M923.95,1279.58L932.45,1256.48L937.35,1256.48L926.6,1283.88L921.25,1283.88L910.5,1256.48L915.4,1256.48L923.95,1279.58Z" style="fill-rule:nonzero;"/>
    </g>
    <g id="Line" transform="matrix(1.125,0,0,0.262195,-125,1155.16)">
        <rect x="200" y="1299" width="1600" height="41"/>
    </g>
</svg>
